<svg width="25" height="25" viewBox="0 0 25 25" fill="none" xmlns="http://www.w3.org/2000/svg">
<path d="M17.5 23.5C20.8137 23.5 23.5 20.8137 23.5 17.5C23.5 14.1863 20.8137 11.5 17.5 11.5C14.1863 11.5 11.5 14.1863 11.5 17.5C11.5 20.8137 14.1863 23.5 17.5 23.5Z" stroke="black" stroke-width="1.5" stroke-linecap="round" stroke-linejoin="round"/>
<path d="M20.174 15.7561L17.269 19.6291C17.2045 19.7149 17.1223 19.7859 17.0281 19.8372C16.9338 19.8886 16.8296 19.9191 16.7225 19.9268C16.6154 19.9345 16.5079 19.9191 16.4072 19.8817C16.3066 19.8443 16.2151 19.7858 16.139 19.7101L14.639 18.2101" stroke="black" stroke-width="1.5" stroke-linecap="round" stroke-linejoin="round"/>
<path d="M20.5 8.5V2.5C20.5 2.10218 20.342 1.72064 20.0607 1.43934C19.7794 1.15804 19.3978 1 19 1H2.5C2.10218 1 1.72064 1.15804 1.43934 1.43934C1.15804 1.72064 1 2.10218 1 2.5V14.5C1 14.8978 1.15804 15.2794 1.43934 15.5607C1.72064 15.842 2.10218 16 2.5 16H8.5" stroke="black" stroke-width="1.5" stroke-linecap="round" stroke-linejoin="round"/>
<path d="M1 5L20 5" stroke="black" stroke-width="3"/>
<path d="M4 9.25H10" stroke="black" stroke-width="1.5" stroke-linecap="round" stroke-linejoin="round"/>
<path d="M4 12.25H7" stroke="black" stroke-width="1.5" stroke-linecap="round" stroke-linejoin="round"/>
</svg>
