<svg width="25" height="24" viewBox="0 0 25 24" fill="none" xmlns="http://www.w3.org/2000/svg">
<path d="M3.625 19.5C5.07475 19.5 6.25 18.3247 6.25 16.875C6.25 15.4253 5.07475 14.25 3.625 14.25C2.17525 14.25 1 15.4253 1 16.875C1 18.3247 2.17525 19.5 3.625 19.5Z" stroke="black" stroke-width="1.5" stroke-linecap="round" stroke-linejoin="round"/>
<path d="M20.875 19.5C22.3247 19.5 23.5 18.3247 23.5 16.875C23.5 15.4253 22.3247 14.25 20.875 14.25C19.4253 14.25 18.25 15.4253 18.25 16.875C18.25 18.3247 19.4253 19.5 20.875 19.5Z" stroke="black" stroke-width="1.5" stroke-linecap="round" stroke-linejoin="round"/>
<path d="M12.25 19.5C13.6997 19.5 14.875 18.3247 14.875 16.875C14.875 15.4253 13.6997 14.25 12.25 14.25C10.8003 14.25 9.625 15.4253 9.625 16.875C9.625 18.3247 10.8003 19.5 12.25 19.5Z" stroke="black" stroke-width="1.5" stroke-linecap="round" stroke-linejoin="round"/>
<path d="M7.938 23.25C7.69523 22.5909 7.30427 21.9964 6.79531 21.5123C6.28635 21.0283 5.67298 20.6677 5.00254 20.4583C4.3321 20.2489 3.62251 20.1963 2.92853 20.3046C2.23456 20.4129 1.57474 20.6792 1 21.083" stroke="black" stroke-width="1.5" stroke-linecap="round" stroke-linejoin="round"/>
<path d="M16.563 23.25C16.8056 22.5909 17.1965 21.9964 17.7054 21.5124C18.2142 21.0283 18.8275 20.6677 19.4979 20.4583C20.1682 20.2489 20.8778 20.1963 21.5717 20.3046C22.2656 20.4129 22.9253 20.6792 23.5 21.083" stroke="black" stroke-width="1.5" stroke-linecap="round" stroke-linejoin="round"/>
<path d="M16.563 23.2499C16.2364 22.3693 15.6481 21.6097 14.8771 21.0732C14.106 20.5368 13.1893 20.2493 12.25 20.2493C11.3107 20.2493 10.394 20.5368 9.62296 21.0732C8.85193 21.6097 8.26359 22.3693 7.93701 23.2499" stroke="black" stroke-width="1.5" stroke-linecap="round" stroke-linejoin="round"/>
<path d="M14.5 11.25C14.5 11.25 15.25 7.5 18.25 6.75" stroke="black" stroke-width="1.5" stroke-linecap="round" stroke-linejoin="round"/>
<path d="M20.5 6H23.5" stroke="black" stroke-width="1.5" stroke-linecap="round" stroke-linejoin="round"/>
<path d="M22 4.5V7.5" stroke="black" stroke-width="1.5" stroke-linecap="round" stroke-linejoin="round"/>
<path d="M10 11.25C10 11.25 9.25 7.5 6.25 6.75" stroke="black" stroke-width="1.5" stroke-linecap="round" stroke-linejoin="round"/>
<path d="M4 6H1" stroke="black" stroke-width="1.5" stroke-linecap="round" stroke-linejoin="round"/>
<path d="M2.5 4.5V7.5" stroke="black" stroke-width="1.5" stroke-linecap="round" stroke-linejoin="round"/>
<path d="M10.75 2.25H13.75" stroke="black" stroke-width="1.5" stroke-linecap="round" stroke-linejoin="round"/>
<path d="M12.25 0.75V3.75" stroke="black" stroke-width="1.5" stroke-linecap="round" stroke-linejoin="round"/>
<path d="M12.25 11.25V6.75" stroke="black" stroke-width="1.5" stroke-linecap="round" stroke-linejoin="round"/>
</svg>
