<svg width="24" height="24" viewBox="0 0 24 24" fill="none" xmlns="http://www.w3.org/2000/svg">
<path d="M23.25 12L20.43 19.756C20.3775 19.8998 20.2823 20.0242 20.1572 20.1124C20.0321 20.2007 19.8831 20.2487 19.73 20.25H14.358C14.2111 20.25 14.0674 20.2068 13.9447 20.126C13.8221 20.0451 13.7259 19.93 13.668 19.795L12.061 15.295C12.0119 15.181 11.992 15.0566 12.0029 14.9329C12.0139 14.8093 12.0554 14.6903 12.1237 14.5867C12.192 14.4831 12.285 14.3981 12.3943 14.3393C12.5036 14.2805 12.6259 14.2498 12.75 14.25H22.432" stroke="black" stroke-width="1.5" stroke-linecap="round" stroke-linejoin="round"/>
<path d="M15.375 22.5C15.4492 22.5 15.5217 22.522 15.5833 22.5632C15.645 22.6044 15.6931 22.663 15.7215 22.7315C15.7498 22.8 15.7573 22.8754 15.7428 22.9482C15.7283 23.0209 15.6926 23.0877 15.6402 23.1402C15.5877 23.1926 15.5209 23.2283 15.4482 23.2428C15.3754 23.2573 15.3 23.2498 15.2315 23.2215C15.163 23.1931 15.1044 23.145 15.0632 23.0833C15.022 23.0217 15 22.9492 15 22.875C14.9999 22.8257 15.0095 22.7769 15.0283 22.7313C15.0471 22.6858 15.0747 22.6444 15.1095 22.6095C15.1444 22.5747 15.1858 22.5471 15.2313 22.5283C15.2769 22.5095 15.3257 22.4999 15.375 22.5Z" fill="black" stroke="black" stroke-width="1.5" stroke-linecap="round" stroke-linejoin="round"/>
<path d="M19.125 22.5C19.1992 22.5 19.2717 22.522 19.3333 22.5632C19.395 22.6044 19.4431 22.663 19.4715 22.7315C19.4998 22.8 19.5073 22.8754 19.4928 22.9482C19.4783 23.0209 19.4426 23.0877 19.3902 23.1402C19.3377 23.1926 19.2709 23.2283 19.1982 23.2428C19.1254 23.2573 19.05 23.2498 18.9815 23.2215C18.913 23.1931 18.8544 23.145 18.8132 23.0833C18.772 23.0217 18.75 22.9492 18.75 22.875C18.7499 22.8257 18.7595 22.7769 18.7783 22.7313C18.7971 22.6858 18.8247 22.6444 18.8595 22.6095C18.8944 22.5747 18.9358 22.5471 18.9813 22.5283C19.0269 22.5095 19.0757 22.4999 19.125 22.5Z" fill="black" stroke="black" stroke-width="1.5" stroke-linecap="round" stroke-linejoin="round"/>
<path d="M6 6.75C7.65685 6.75 9 5.40685 9 3.75C9 2.09315 7.65685 0.75 6 0.75C4.34315 0.75 3 2.09315 3 3.75C3 5.40685 4.34315 6.75 6 6.75Z" stroke="black" stroke-width="1.5" stroke-linecap="round" stroke-linejoin="round"/>
<path d="M10.555 10.888C9.97906 9.88472 9.08792 9.0997 8.02001 8.65489C6.95209 8.21008 5.76717 8.13039 4.6493 8.42818C3.53144 8.72597 2.5432 9.38459 1.83809 10.3017C1.13299 11.2189 0.750486 12.3432 0.75 13.5V15.75H3L3.75 23.25H8.25L8.574 20.017" stroke="black" stroke-width="1.5" stroke-linecap="round" stroke-linejoin="round"/>
<path d="M16.5 6C17.9497 6 19.125 4.82475 19.125 3.375C19.125 1.92525 17.9497 0.75 16.5 0.75C15.0503 0.75 13.875 1.92525 13.875 3.375C13.875 4.82475 15.0503 6 16.5 6Z" stroke="black" stroke-width="1.5" stroke-linecap="round" stroke-linejoin="round"/>
<path d="M20.4 8.99993C20.042 8.38022 19.5413 7.85484 18.9396 7.46741C18.3378 7.07997 17.6523 6.84165 16.94 6.77223C16.2277 6.70281 15.5091 6.80428 14.8439 7.06824C14.1786 7.33219 13.5859 7.75101 13.115 8.28993" stroke="black" stroke-width="1.5" stroke-linecap="round" stroke-linejoin="round"/>
</svg>
