<svg width="25" height="24" viewBox="0 0 25 24" fill="none" xmlns="http://www.w3.org/2000/svg">
<path d="M23.5 9.938C23.5002 13.1285 22.3704 16.2159 20.3111 18.6527C18.2517 21.0895 15.3958 22.7183 12.25 23.25C9.10416 22.7183 6.2483 21.0895 4.18894 18.6527C2.12958 16.2159 0.999806 13.1285 1 9.938V2.25C1 1.85218 1.15804 1.47064 1.43934 1.18934C1.72064 0.908035 2.10218 0.75 2.5 0.75H22C22.3978 0.75 22.7794 0.908035 23.0607 1.18934C23.342 1.47064 23.5 1.85218 23.5 2.25V9.938Z" stroke="black" stroke-width="1.5" stroke-linecap="round" stroke-linejoin="round"/>
<path d="M1 5.25H23.5" stroke="black" stroke-width="1.5" stroke-linecap="round" stroke-linejoin="round"/>
<path d="M17.5 9.74899L12.03 15.219C11.9604 15.2887 11.8778 15.3439 11.7869 15.3816C11.6959 15.4193 11.5984 15.4387 11.5 15.4387C11.4016 15.4387 11.3041 15.4193 11.2131 15.3816C11.1222 15.3439 11.0396 15.2887 10.97 15.219L9.25 13.5" stroke="black" stroke-width="1.5" stroke-linecap="round" stroke-linejoin="round"/>
</svg>
